<svg width="2500" height="757" viewBox="0 0 512 155" fill="none" xmlns="http://www.w3.org/2000/svg"><path d="M200.682 74.928c3.851-2.187 6.937-4.91 9.183-8.122 2.56-3.656 3.86-7.832 3.86-12.405 0-8.561-3.201-15.244-9.508-19.865-6.232-4.568-14.807-6.881-25.494-6.881h-38.645v99.171h40.189c11.255 0 20.267-2.617 26.783-7.782 6.568-5.208 9.902-12.502 9.902-21.682 0-5.59-1.568-10.398-4.656-14.29-2.771-3.48-6.672-6.216-11.612-8.144zm-39.691-29.4h16.051c5.034 0 8.835.976 11.304 2.896 2.439 1.895 3.624 4.385 3.624 7.61 0 3.224-1.185 5.84-3.624 7.744-2.469 1.919-6.27 2.894-11.304 2.894h-16.051zm30.218 60.063c-2.783 2.23-7.031 3.358-12.625 3.358h-17.593V84.68h17.593c5.591 0 9.845 1.091 12.638 3.233 2.769 2.136 4.115 4.956 4.115 8.63 0 3.866-1.351 6.825-4.128 9.05zm53.996-52.922h-21.053v74.153h21.053zM453.137 63.82c-3.332-3.967-7.508-7.076-12.413-9.245-4.9-2.166-10.411-3.27-16.373-3.27-7.307 0-13.898 1.66-19.597 4.93-5.712 3.28-10.245 7.837-13.477 13.552-3.233 5.71-4.871 12.336-4.871 19.688 0 7.353 1.59 14.416 4.723 20.214 3.142 5.817 7.658 10.379 13.422 13.571 5.752 3.174 12.509 4.785 20.082 4.785 9.296 0 17.187-2.337 23.46-6.951 6.041-4.438 10.196-10.7 12.459-18.538h-21.195c-1.115 2.667-2.686 4.938-4.935 6.538-2.659 1.887-6.093 2.844-10.21 2.844-3.57 0-6.629-.869-9.092-2.579-2.474-1.71-4.364-4.238-5.605-7.521-.745-1.952-1.273-4.195-1.584-6.69h52.991l.104-.66c.946-5.98.708-11.647-.718-16.842-1.429-5.208-3.841-9.859-7.171-13.826m-44.871 17.598c.324-1.51.761-3.08 1.316-4.512 1.292-3.326 3.157-5.886 5.548-7.596 2.381-1.71 5.343-2.573 8.806-2.573 4.34 0 7.902 1.407 10.588 4.176 2.546 2.635 3.991 6.235 4.299 10.505zM245.635 27.652h-21.932v17.874h21.932zM360.93 61.08c-2.49-2.99-5.409-5.31-8.701-6.912-3.929-1.9-8.527-2.863-13.665-2.863-6.291 0-11.931 1.552-16.756 4.608-4.819 3.053-8.642 7.368-11.357 12.818-2.705 5.436-4.08 11.818-4.08 18.978s1.445 13.166 4.297 18.64c2.857 5.492 6.819 9.867 11.773 13.009 4.964 3.149 10.625 4.747 16.828 4.747 4.683 0 8.961-1.014 12.708-3.016 2.967-1.584 5.452-3.68 7.412-6.24v8.074c0 5.004-1.316 8.845-3.903 11.405-2.595 2.56-6.54 3.852-11.73 3.852-4.471 0-7.988-1.013-10.449-3.016-2.013-1.637-3.771-3.787-4.181-8.339h-20.297c.188 6.369 2.059 10.661 4.699 14.421 2.962 4.214 7.128 7.509 12.392 9.784 5.214 2.249 11.263 3.391 17.978 3.391 11.272 0 20.246-2.833 26.666-8.414 6.46-5.613 9.735-13.472 9.735-23.355V52.667H360.93zm-3.707 36.48c-1.335 2.755-3.219 4.916-5.608 6.411-2.385 1.496-5.264 2.257-8.561 2.257-4.766 0-8.471-1.621-11.333-4.961-2.852-3.321-4.297-7.883-4.297-13.56s1.445-10.24 4.297-13.567c2.825-3.294 6.639-4.962 11.333-4.962 4.693 0 8.84 1.692 11.756 5.037 2.944 3.372 4.437 7.959 4.437 13.623 0 3.67-.681 6.937-2.024 9.719zm154.779-27.157V52.67h-15.196V27.652h-20.913V52.67h-12.979v17.734h12.979v29.03c0 16.14 3.179 28.001 22.996 27.634l12.44-.244v-16.628h-6.173c-8.808 0-8.317-5.135-8.317-14.673l-.035-25.119zm-210.746-.001V52.67H286.06V27.652h-20.913V52.67h-12.979v17.734h12.979v29.03c0 16.14 3.179 28.001 22.996 27.634l12.44-.244v-16.628h-6.173c-8.808 0-8.318-5.135-8.318-14.673l-.034-25.119zM52.488 45.526h31.58l32.305 32.1a5.36 5.36 0 0 1 .021 7.582l-41.43 41.639h-32.53l9.834-9.561 36.11-35.881-35.651-35.882" fill="#03AAC1"/><path d="M65.467 81.325H33.888L1.583 49.226a5.36 5.36 0 0 1-.022-7.583L42.991 0h32.53l-9.834 9.562-36.109 35.88 35.65 35.882" fill="#03AAC1"/></svg>